<?xml version="1.0" encoding="UTF-8"?> <svg xmlns="http://www.w3.org/2000/svg" xmlns:xlink="http://www.w3.org/1999/xlink" height="8.4666mm" style="shape-rendering:geometricPrecision; text-rendering:geometricPrecision; image-rendering:optimizeQuality; fill-rule:evenodd; clip-rule:evenodd" version="1.1" viewBox="0 0 846.66 846.66" width="8.4666mm" xml:space="preserve"><defs><style type="text/css"> .fil0 {fill:black;fill-rule:nonzero} </style></defs><g id="Layer_x0020_1"><path class="fil0" d="M89.44 14.83l667.78 0c43.28,0 78.61,35.33 78.61,78.61l0 659.78c0,43.28 -35.33,78.61 -78.61,78.61l-667.78 0c-43.28,0 -78.61,-35.33 -78.61,-78.61l0 -659.78c0,-43.28 35.33,-78.61 78.61,-78.61zm125.32 123.78c0,-27.14 41.26,-27.14 41.26,0l0 8.18 37.48 0c27.14,0 27.14,41.26 0,41.26l-37.48 0 0 46.14 8.67 0c35.32,0 64.34,29.03 64.34,64.34 0,35.39 -28.97,64.33 -64.34,64.33l-8.67 0 0 8.17c0,27.14 -41.26,27.14 -41.26,0l0 -8.17 -37.47 0c-27.14,0 -27.14,-41.26 0,-41.26l37.47 0 0 -46.15 -8.67 0c-35.31,0 -64.33,-29.02 -64.33,-64.33 0,-35.34 28.95,-64.33 64.33,-64.33l8.67 0 0 -8.18zm41.26 136.84l0 46.15 8.67 0c12.68,0 23.08,-10.37 23.08,-23.07 0,-12.76 -10.32,-23.08 -23.08,-23.08l-8.67 0zm-41.26 -41.26l0 -46.14 -8.67 0c-12.69,0 -23.07,10.37 -23.07,23.07 0,12.76 10.31,23.07 23.07,23.07l8.67 0zm377.52 63.82c-27.14,0 -27.14,-41.26 0,-41.26l115.96 0c27.13,0 27.13,41.26 0,41.26l-115.96 0zm0 110.97c-27.14,0 -27.14,-41.27 0,-41.27l115.96 0c27.13,0 27.13,41.27 0,41.27l-115.96 0zm0 110.96c-27.14,0 -27.14,-41.26 0,-41.26l115.96 0c27.13,0 27.13,41.26 0,41.26l-115.96 0zm0 110.96c-27.14,0 -27.14,-41.26 0,-41.26l115.96 0c27.13,0 27.13,41.26 0,41.26l-115.96 0zm0 110.96c-27.14,0 -27.14,-41.26 0,-41.26l115.96 0c27.13,0 27.13,41.26 0,41.26l-115.96 0zm-226.93 -221.92c-27.14,0 -27.14,-41.26 0,-41.26l115.96 0c27.14,0 27.14,41.26 0,41.26l-115.96 0zm0 110.96c-27.14,0 -27.14,-41.26 0,-41.26l115.96 0c27.14,0 27.14,41.26 0,41.26l-115.96 0zm0 110.96c-27.14,0 -27.14,-41.26 0,-41.26l115.96 0c27.14,0 27.14,41.26 0,41.26l-115.96 0zm-226.93 -110.96c-27.13,0 -27.13,-41.26 0,-41.26l115.96 0c27.14,0 27.14,41.26 0,41.26l-115.96 0zm0 110.96c-27.13,0 -27.13,-41.26 0,-41.26l115.96 0c27.14,0 27.14,41.26 0,41.26l-115.96 0zm618.8 -685.77l-667.78 0c-20.5,0 -37.35,16.85 -37.35,37.35l0 659.78c0,20.5 16.85,37.35 37.35,37.35l667.78 0c20.5,0 37.35,-16.85 37.35,-37.35l0 -659.78c0,-20.5 -16.85,-37.35 -37.35,-37.35z"></path></g></svg> 