<?xml version="1.0" encoding="UTF-8"?> <svg xmlns="http://www.w3.org/2000/svg" xmlns:xlink="http://www.w3.org/1999/xlink" id="Layer_1" version="1.1" viewBox="0 0 64 64" xml:space="preserve"><g><path d="M54,1h-9c-1.1044922,0-2,0.8955078-2,2s0.8955078,2,2,2h9c2.7568359,0,5,2.2431641,5,5v44c0,2.7568359-2.2431641,5-5,5h-3 c-1.1044922,0-2,0.8955078-2,2s0.8955078,2,2,2h3c4.9624023,0,9-4.0375977,9-9V10C63,5.0375977,58.9624023,1,54,1z"></path><path d="M19,59h-9c-2.7568359,0-5-2.2431641-5-5V10c0-2.7568359,2.2431641-5,5-5h3c1.1044922,0,2-0.8955078,2-2s-0.8955078-2-2-2 h-3c-4.9624023,0-9,4.0375977-9,9v44c0,4.9624023,4.0375977,9,9,9h9c1.1044922,0,2-0.8955078,2-2S20.1044922,59,19,59z"></path><path d="M44,41c-1.1044922,0-2,0.8955078-2,2v13.171875L14.4140625,28.5859375c-0.7802734-0.78125-2.0478516-0.78125-2.828125,0 c-0.78125,0.7807617-0.78125,2.0473633,0,2.828125L39.171875,59H26c-1.1044922,0-2,0.8955078-2,2s0.8955078,2,2,2h18 c0.1312866,0,0.2623901-0.0137939,0.3916626-0.0394897c0.059021-0.0117188,0.1136475-0.0338135,0.1706543-0.0505981 c0.0679321-0.0198975,0.1367188-0.0355835,0.2026367-0.0628662c0.0664673-0.0275879,0.1268311-0.0654907,0.1895142-0.0997925 c0.0516357-0.0282593,0.1052856-0.0509644,0.1547852-0.0840454c0.2192383-0.1465454,0.4075928-0.3348999,0.5540771-0.5541382 c0.0326538-0.0488281,0.0549927-0.1017456,0.0828857-0.1526489c0.034729-0.0632935,0.072998-0.1243286,0.1008301-0.1915894 c0.0271606-0.0656738,0.0428467-0.1342163,0.0626831-0.2019043c0.0169067-0.057251,0.0390015-0.1119995,0.0507813-0.1712646 C45.9862061,61.2623901,46,61.1312866,46,61V43C46,41.8955078,45.1044922,41,44,41z"></path><path d="M20,23c1.1044922,0,2-0.8955078,2-2V7.828125l27.5859375,27.5859375C49.9760742,35.8046875,50.4882813,36,51,36 s1.0239258-0.1953125,1.4140625-0.5859375c0.78125-0.7807617,0.78125-2.0473633,0-2.828125L24.828125,5H38 c1.1044922,0,2-0.8955078,2-2s-0.8955078-2-2-2H20c-0.1313477,0-0.2625122,0.0137939-0.3918457,0.0394897 c-0.0582886,0.0115967-0.1121216,0.0334473-0.168457,0.0499878c-0.0686646,0.0200806-0.1381836,0.0359497-0.204834,0.0635376 c-0.0657959,0.0272827-0.1253052,0.0647583-0.1873779,0.0986328c-0.0523682,0.0285034-0.1067505,0.0516357-0.1569214,0.0852051 c-0.2191772,0.1464844-0.4074707,0.3348999-0.553894,0.5540771c-0.0326538,0.0488281-0.0549927,0.1017456-0.0828857,0.1526489 c-0.034729,0.0632935-0.072998,0.1243286-0.1008301,0.1915894c-0.0271606,0.0656738-0.0428467,0.1342163-0.0626831,0.2019043 c-0.0169067,0.057251-0.0390015,0.1119995-0.0507813,0.1712646C18.0137939,2.7376099,18,2.8687134,18,3v18 C18,22.1044922,18.8955078,23,20,23z"></path></g></svg> 