<?xml version="1.0" encoding="UTF-8"?> <svg xmlns="http://www.w3.org/2000/svg" xmlns:xlink="http://www.w3.org/1999/xlink" id="Layer_1" version="1.1" viewBox="0 0 64 64" xml:space="preserve"><g><path d="M54.5859375,17.1325684H9.4140625C4.7744141,17.1325684,1,20.9069824,1,25.5466309v28.90625 c0,4.6396484,3.7744141,8.4145508,8.4140625,8.4145508h45.171875C59.2255859,62.8674316,63,59.0925293,63,54.4528809v-6.5854492 V30.5466309v-5C63,20.9069824,59.2255859,17.1325684,54.5859375,17.1325684z M54.5859375,58.8674316H9.4140625 C6.9804688,58.8674316,5,56.8869629,5,54.4528809v-28.90625c0-2.434082,1.9804688-4.4140625,4.4140625-4.4140625h45.171875 C57.0195313,21.1325684,59,23.1125488,59,25.5466309v3H49c-2.2060547,0-4,1.7944336-4,4v13.3208008c0,2.2055664,1.7939453,4,4,4h10 v4.5854492C59,56.8869629,57.0195313,58.8674316,54.5859375,58.8674316z M59,45.8674316H49V32.5466309h10V45.8674316z"></path><path d="M54,43.7072754c1.1044922,0,2-0.8955078,2-2v-5c0-1.1044922-0.8955078-2-2-2s-2,0.8955078-2,2v5 C52,42.8117676,52.8955078,43.7072754,54,43.7072754z"></path><path d="M11,14.1325684c1.1044922,0,2-0.8955078,2-2v-7h22v7c0,1.1044922,0.8955078,2,2,2s2-0.8955078,2-2v-9 c0-1.1044922-0.8955078-2-2-2H11c-1.1044922,0-2,0.8955078-2,2v9C9,13.2370605,9.8955078,14.1325684,11,14.1325684z"></path><path d="M27.2001953,8.5324707C26.8535156,8.2727051,26.4326172,8.1325684,26,8.1325684h-4 c-0.4326172,0-0.8535156,0.1401367-1.2001953,0.3999023l-3,2.25c-0.8837891,0.6625977-1.0625,1.9165039-0.3994141,2.800293 c0.6621094,0.8837891,1.9140625,1.0634766,2.7998047,0.3999023l2.4667969-1.8500977h2.6660156l2.4667969,1.8500977 c0.3603516,0.2695313,0.78125,0.3999023,1.1982422,0.3999023c0.6083984,0,1.2089844-0.2763672,1.6015625-0.7998047 c0.6630859-0.8837891,0.484375-2.1376953-0.3994141-2.800293L27.2001953,8.5324707z"></path><path d="M44,7.1325684h4v5c0,1.1044922,0.8955078,2,2,2s2-0.8955078,2-2v-7c0-1.1044922-0.8955078-2-2-2h-6 c-1.1044922,0-2,0.8955078-2,2S42.8955078,7.1325684,44,7.1325684z"></path></g></svg> 